<svg width="25" height="24" viewBox="0 0 25 24" fill="none" xmlns="http://www.w3.org/2000/svg">
<path d="M23.0749 0H1.7249C0.992902 0 0.399902 0.593 0.399902 1.325V22.676C0.399902 23.407 0.992902 24 1.7249 24H13.2199V14.706H10.0919V11.084H13.2199V8.413C13.2199 5.313 15.1129 3.625 17.8789 3.625C19.2039 3.625 20.3419 3.724 20.6739 3.768V7.008L18.7559 7.009C17.2519 7.009 16.9609 7.724 16.9609 8.772V11.085H20.5479L20.0809 14.707H16.9609V24H23.0769C23.8069 24 24.3999 23.407 24.3999 22.675V1.325C24.3999 0.593 23.8069 0 23.0749 0Z" fill="#FCB72B"/>
</svg>
