<svg width="25" height="24" viewBox="0 0 25 24" fill="none" xmlns="http://www.w3.org/2000/svg">
<path fill-rule="evenodd" clip-rule="evenodd" d="M12.3999 0C9.1409 0 8.7329 0.014 7.4529 0.072C3.0949 0.272 0.672902 2.69 0.472902 7.052C0.413902 8.333 0.399902 8.741 0.399902 12C0.399902 15.259 0.413902 15.668 0.471902 16.948C0.671902 21.306 3.0899 23.728 7.4519 23.928C8.7329 23.986 9.1409 24 12.3999 24C15.6589 24 16.0679 23.986 17.3479 23.928C21.7019 23.728 24.1299 21.31 24.3269 16.948C24.3859 15.668 24.3999 15.259 24.3999 12C24.3999 8.741 24.3859 8.333 24.3279 7.053C24.1319 2.699 21.7109 0.273 17.3489 0.073C16.0679 0.014 15.6589 0 12.3999 0ZM12.3999 2.163C15.6039 2.163 15.9839 2.175 17.2499 2.233C20.5019 2.381 22.0209 3.924 22.1689 7.152C22.2269 8.417 22.2379 8.797 22.2379 12.001C22.2379 15.206 22.2259 15.585 22.1689 16.85C22.0199 20.075 20.5049 21.621 17.2499 21.769C15.9839 21.827 15.6059 21.839 12.3999 21.839C9.1959 21.839 8.8159 21.827 7.5509 21.769C4.2909 21.62 2.7799 20.07 2.6319 16.849C2.5739 15.584 2.5619 15.205 2.5619 12C2.5619 8.796 2.5749 8.417 2.6319 7.151C2.7809 3.924 4.2959 2.38 7.5509 2.232C8.8169 2.175 9.1959 2.163 12.3999 2.163ZM6.2379 12C6.2379 8.597 8.9969 5.838 12.3999 5.838C15.8029 5.838 18.5619 8.597 18.5619 12C18.5619 15.404 15.8029 18.163 12.3999 18.163C8.9969 18.163 6.2379 15.403 6.2379 12ZM12.3999 16C10.1909 16 8.3999 14.21 8.3999 12C8.3999 9.791 10.1909 8 12.3999 8C14.6089 8 16.3999 9.791 16.3999 12C16.3999 14.21 14.6089 16 12.3999 16ZM17.3649 5.595C17.3649 4.8 18.0099 4.155 18.8059 4.155C19.6009 4.155 20.2449 4.8 20.2449 5.595C20.2449 6.39 19.6009 7.035 18.8059 7.035C18.0099 7.035 17.3649 6.39 17.3649 5.595Z" fill="#FCB72B"/>
</svg>
