<svg width="108" height="29" fill="none" xmlns="http://www.w3.org/2000/svg"><path fill-rule="evenodd" clip-rule="evenodd" d="M107.1 23.2V28h-8.4a2.97 2.97 0 0 1-3.08-3.12V12.96h-5.88v-4.8h5.88V0h5.04v8.16h7.16v4.8h-7.16V22c0 .8.36 1.2 1.08 1.2h5.36ZM9.12 28.56c2.61 0 4.64-.59 6.08-1.76a5.77 5.77 0 0 0 2.16-4.72v-.24a5 5 0 0 0-1.92-4.18 9.5 9.5 0 0 0-4.96-1.82 14.72 14.72 0 0 1-3.64-.7c-.67-.28-1-.74-1-1.38 0-.45.21-.83.64-1.14.43-.3 1.07-.46 1.92-.46.93 0 1.7.2 2.28.62.59.41 1 .98 1.24 1.7l4.56-1.84a8.83 8.83 0 0 0-.92-1.74c-.4-.6-.92-1.15-1.56-1.64-.64-.5-1.42-.9-2.34-1.2-.92-.3-2-.46-3.26-.46-.96 0-1.9.13-2.8.4-.9.27-1.7.66-2.4 1.18a6.2 6.2 0 0 0-1.68 1.9 5.15 5.15 0 0 0-.64 2.6v.24c0 1.9.66 3.33 1.98 4.3 1.32.97 3.1 1.55 5.34 1.74.83.08 1.51.19 2.06.32s.98.3 1.3.5c.32.2.54.41.66.64.12.23.18.47.18.74 0 .45-.23.87-.7 1.26s-1.33.58-2.58.58c-1.41 0-2.46-.32-3.14-.96a4.55 4.55 0 0 1-1.34-2.24L0 22.32c.13.7.4 1.4.78 2.14.39.73.94 1.4 1.66 2 .72.6 1.63 1.1 2.72 1.5 1.1.4 2.41.6 3.96.6Zm22.45 0c2.83 0 5.1-.72 6.78-2.16a9.6 9.6 0 0 0 3.22-5.68l-4.96-1.24a5.55 5.55 0 0 1-1.58 3.12c-.8.77-1.99 1.16-3.54 1.16-.72 0-1.4-.11-2.04-.34a4.7 4.7 0 0 1-2.82-2.72 6.1 6.1 0 0 1-.42-2.34v-.24c0-.88.14-1.67.42-2.38a5 5 0 0 1 4.86-3.34c1.55 0 2.75.43 3.6 1.28a5.19 5.19 0 0 1 1.52 3.04l4.96-1.28a9.51 9.51 0 0 0-3.26-5.68C36.6 8.32 34.35 7.6 31.57 7.6c-1.44 0-2.79.24-4.06.72a9.58 9.58 0 0 0-5.54 5.36c-.53 1.28-.8 2.72-.8 4.32v.48c0 1.6.27 3.03.8 4.28a8.98 8.98 0 0 0 5.5 5.12c1.27.45 2.64.68 4.1.68Zm26.36-.68c-1.24.45-2.54.68-3.9.68-1.36 0-2.66-.23-3.9-.68a10 10 0 0 1-3.3-1.98 9.33 9.33 0 0 1-2.28-3.2 10.74 10.74 0 0 1-.84-4.38v-.48c0-1.63.28-3.07.84-4.34a9.54 9.54 0 0 1 5.58-5.22c1.24-.45 2.54-.68 3.9-.68 1.36 0 2.66.23 3.9.68a9.54 9.54 0 0 1 5.58 5.22c.56 1.27.84 2.71.84 4.34v.48c0 1.65-.28 3.11-.84 4.38a9.33 9.33 0 0 1-2.28 3.2 10 10 0 0 1-3.3 1.98Zm-3.9-4.12c-.72 0-1.4-.12-2.04-.36a4.95 4.95 0 0 1-3.24-4.92v-.8c0-.83.14-1.57.42-2.22a4.91 4.91 0 0 1 2.82-2.7 5.76 5.76 0 0 1 4.08 0 4.95 4.95 0 0 1 3.24 4.92v.8c0 .83-.14 1.57-.42 2.22a4.91 4.91 0 0 1-2.82 2.7c-.64.24-1.32.36-2.04.36Zm26.6 4.12c-1.25.45-2.55.68-3.9.68-1.37 0-2.67-.23-3.9-.68a10 10 0 0 1-3.3-1.98 9.33 9.33 0 0 1-2.29-3.2 10.74 10.74 0 0 1-.84-4.38v-.48c0-1.63.28-3.07.84-4.34a9.54 9.54 0 0 1 5.58-5.22c1.24-.45 2.54-.68 3.9-.68 1.36 0 2.66.23 3.9.68a9.54 9.54 0 0 1 5.58 5.22c.56 1.27.84 2.71.84 4.34v.48c0 1.65-.28 3.11-.84 4.38a9.33 9.33 0 0 1-2.28 3.2 10 10 0 0 1-3.3 1.98Zm-3.9-4.12c-.73 0-1.4-.12-2.05-.36a4.95 4.95 0 0 1-3.24-4.92v-.8c0-.83.14-1.57.42-2.22a4.91 4.91 0 0 1 2.82-2.7 5.76 5.76 0 0 1 4.08 0A4.95 4.95 0 0 1 82 17.68v.8c0 .83-.14 1.57-.42 2.22a4.91 4.91 0 0 1-2.82 2.7c-.64.24-1.32.36-2.04.36Z" fill="#495567"/></svg>