<svg width="25" height="20" viewBox="0 0 25 20" fill="none" xmlns="http://www.w3.org/2000/svg">
<path d="M24.3999 2.55699C23.5169 2.94899 22.5679 3.21299 21.5719 3.33199C22.5889 2.72299 23.3699 1.75799 23.7369 0.607986C22.7859 1.17199 21.7319 1.58199 20.6099 1.80299C19.7129 0.845986 18.4319 0.247986 17.0159 0.247986C13.8369 0.247986 11.5009 3.21399 12.2189 6.29299C8.1279 6.08799 4.4999 4.12799 2.0709 1.14899C0.780902 3.36199 1.4019 6.25699 3.5939 7.72299C2.7879 7.69699 2.0279 7.47599 1.3649 7.10699C1.3109 9.38799 2.9459 11.522 5.3139 11.997C4.6209 12.185 3.8619 12.229 3.0899 12.081C3.7159 14.037 5.5339 15.46 7.6899 15.5C5.6199 17.123 3.0119 17.848 0.399902 17.54C2.5789 18.937 5.1679 19.752 7.9479 19.752C17.0899 19.752 22.2549 12.031 21.9429 5.10599C22.9049 4.41099 23.7399 3.54399 24.3999 2.55699Z" fill="#FCB72B"/>
</svg>
